<svg width="20" height="15" viewBox="0 0 20 15" fill="none" xmlns="http://www.w3.org/2000/svg">
  <rect width="20" height="15" rx="2" fill="#B22234"/>
  <rect width="20" height="1" y="1" fill="white"/>
  <rect width="20" height="1" y="3" fill="white"/>
  <rect width="20" height="1" y="5" fill="white"/>
  <rect width="20" height="1" y="7" fill="white"/>
  <rect width="20" height="1" y="9" fill="white"/>
  <rect width="20" height="1" y="11" fill="white"/>
  <rect width="20" height="1" y="13" fill="white"/>
  <rect width="8" height="8" fill="#3C3B6E"/>
  <circle cx="1.5" cy="1.5" r="0.3" fill="white"/>
  <circle cx="3" cy="1.5" r="0.3" fill="white"/>
  <circle cx="4.5" cy="1.5" r="0.3" fill="white"/>
  <circle cx="6" cy="1.5" r="0.3" fill="white"/>
  <circle cx="2.25" cy="2.5" r="0.3" fill="white"/>
  <circle cx="3.75" cy="2.5" r="0.3" fill="white"/>
  <circle cx="5.25" cy="2.5" r="0.3" fill="white"/>
  <circle cx="1.5" cy="3.5" r="0.3" fill="white"/>
  <circle cx="3" cy="3.5" r="0.3" fill="white"/>
  <circle cx="4.5" cy="3.5" r="0.3" fill="white"/>
  <circle cx="6" cy="3.5" r="0.3" fill="white"/>
  <circle cx="2.25" cy="4.5" r="0.3" fill="white"/>
  <circle cx="3.75" cy="4.5" r="0.3" fill="white"/>
  <circle cx="5.25" cy="4.5" r="0.3" fill="white"/>
  <circle cx="1.5" cy="5.5" r="0.3" fill="white"/>
  <circle cx="3" cy="5.5" r="0.3" fill="white"/>
  <circle cx="4.5" cy="5.5" r="0.3" fill="white"/>
  <circle cx="6" cy="5.5" r="0.3" fill="white"/>
  <circle cx="2.25" cy="6.5" r="0.3" fill="white"/>
  <circle cx="3.75" cy="6.5" r="0.3" fill="white"/>
  <circle cx="5.25" cy="6.5" r="0.3" fill="white"/>
</svg>